<svg width="200" height="42" viewBox="0 0 200 42" fill="none" xmlns="http://www.w3.org/2000/svg">
<path opacity="0.5" d="M40.0652 2.25671L30.2601 36.9917C30.2102 37.1494 30.0108 37.1967 29.8945 37.0863L23.3301 30.8583L28.2492 13.4514C28.2991 13.2937 28.1495 13.1518 27.9833 13.1991L9.63617 17.8662L3.10498 11.6697C2.98865 11.5593 3.03851 11.3701 3.20469 11.3228L39.7993 2.00444C39.9655 1.97291 40.115 2.11481 40.0652 2.25671Z" fill="#3C096C"/>
<path opacity="0.5" d="M23.3297 30.858L20.8037 39.8452C20.7538 40.0029 20.5544 40.0502 20.4381 39.9398L0.0634003 20.6251C-0.0529313 20.5147 -0.00307518 20.3255 0.163113 20.2782L9.63583 17.8658L23.3297 30.858Z" fill="#3C096C"/>
<path d="M28.2484 13.4511L23.3292 30.858L9.63533 17.8659L27.9825 13.1988C28.1487 13.1515 28.2982 13.2934 28.2484 13.4511Z" fill="#7B2CBF"/>
<path d="M72.1065 19.993V27.2013C71.8234 27.5428 71.3861 27.9134 70.7948 28.3132C70.2035 28.7046 69.4414 29.0419 68.5086 29.3251C67.5758 29.6083 66.4473 29.7499 65.1231 29.7499C63.9487 29.7499 62.8785 29.5583 61.9124 29.1752C60.9463 28.7837 60.1134 28.2132 59.4138 27.4637C58.7226 26.7141 58.1895 25.798 57.8147 24.7152C57.44 23.6242 57.2526 22.3791 57.2526 20.9799V19.843C57.2526 18.4438 57.4316 17.1987 57.7898 16.1077C58.1562 15.0166 58.6768 14.0963 59.3514 13.3468C60.026 12.5972 60.8297 12.0267 61.7625 11.6352C62.6953 11.2438 63.7322 11.0481 64.8732 11.0481C66.4556 11.0481 67.7549 11.3063 68.771 11.8226C69.787 12.3307 70.5616 13.0386 71.0946 13.9464C71.636 14.8459 71.9691 15.8786 72.0941 17.0446H68.4586C68.367 16.4283 68.1921 15.8911 67.9339 15.4331C67.6758 14.975 67.3051 14.6169 66.8221 14.3587C66.3474 14.1005 65.731 13.9714 64.9731 13.9714C64.3485 13.9714 63.7905 14.1005 63.2991 14.3587C62.816 14.6085 62.4079 14.9792 62.0748 15.4705C61.7417 15.9619 61.4876 16.5699 61.3127 17.2945C61.1378 18.0191 61.0504 18.8603 61.0504 19.8181V20.9799C61.0504 21.9293 61.142 22.7705 61.3252 23.5034C61.5085 24.228 61.7791 24.8402 62.1373 25.3399C62.5037 25.8313 62.9535 26.2019 63.4865 26.4517C64.0195 26.7016 64.64 26.8265 65.3479 26.8265C65.9393 26.8265 66.4306 26.7766 66.8221 26.6766C67.2219 26.5767 67.5425 26.4559 67.784 26.3143C68.0339 26.1644 68.2254 26.0228 68.3587 25.8896V22.6664H64.9357V19.993H72.1065ZM82.2008 26.4517V20.4302C82.2008 19.9971 82.13 19.6265 81.9884 19.3183C81.8468 19.0019 81.6261 18.7562 81.3263 18.5813C81.0348 18.4064 80.6558 18.3189 80.1894 18.3189C79.7896 18.3189 79.444 18.3897 79.1525 18.5313C78.861 18.6645 78.6361 18.8603 78.4779 19.1185C78.3197 19.3683 78.2405 19.664 78.2405 20.0054H74.6426C74.6426 19.4308 74.7759 18.8853 75.0424 18.3689C75.3089 17.8525 75.6962 17.3986 76.2042 17.0072C76.7122 16.6074 77.3161 16.2951 78.0157 16.0702C78.7236 15.8453 79.5148 15.7329 80.3893 15.7329C81.4387 15.7329 82.3715 15.9078 83.1877 16.2576C84.0039 16.6074 84.6452 17.1321 85.1116 17.8317C85.5863 18.5313 85.8237 19.4058 85.8237 20.4552V26.2394C85.8237 26.9806 85.8695 27.5886 85.9611 28.0633C86.0527 28.5297 86.186 28.9378 86.3609 29.2876V29.5H82.7255C82.5506 29.1335 82.4173 28.6755 82.3257 28.1258C82.2424 27.5678 82.2008 27.0098 82.2008 26.4517ZM82.6755 21.2672L82.7005 23.3036H80.6891C80.2144 23.3036 79.8021 23.3577 79.4523 23.466C79.1025 23.5742 78.8152 23.7283 78.5903 23.9282C78.3655 24.1198 78.1989 24.3446 78.0906 24.6028C77.9907 24.861 77.9407 25.1442 77.9407 25.4523C77.9407 25.7605 78.0115 26.0395 78.1531 26.2893C78.2947 26.5309 78.4987 26.7224 78.7652 26.864C79.0317 26.9973 79.3441 27.0639 79.7022 27.0639C80.2435 27.0639 80.7141 26.9556 81.1139 26.7391C81.5137 26.5225 81.8218 26.256 82.0384 25.9395C82.2632 25.6231 82.3798 25.3232 82.3882 25.0401L83.3376 26.5642C83.2044 26.9057 83.0211 27.2596 82.7879 27.6261C82.5631 27.9925 82.2757 28.3382 81.9259 28.663C81.5761 28.9795 81.1555 29.2418 80.6641 29.45C80.1728 29.6499 79.5898 29.7499 78.9151 29.7499C78.0573 29.7499 77.2786 29.5791 76.579 29.2377C75.8877 28.8879 75.338 28.409 74.9299 27.801C74.5302 27.1847 74.3303 26.4851 74.3303 25.7022C74.3303 24.9943 74.4635 24.3654 74.73 23.8158C74.9966 23.2661 75.388 22.8038 75.9044 22.4291C76.4291 22.0459 77.0829 21.7586 77.8657 21.5671C78.6486 21.3672 79.5564 21.2672 80.5892 21.2672H82.6755ZM88.5971 10.311H92.195V26.4018L91.8327 29.5H88.5971V10.311ZM100.753 22.604V22.8663C100.753 23.8741 100.644 24.7985 100.428 25.6397C100.22 26.4809 99.8948 27.2096 99.4534 27.826C99.012 28.4339 98.4623 28.9087 97.8043 29.2501C97.1547 29.5833 96.3885 29.7499 95.5056 29.7499C94.6811 29.7499 93.9648 29.5833 93.3569 29.2501C92.7572 28.917 92.2533 28.4464 91.8452 27.8385C91.4371 27.2305 91.1082 26.5184 90.8583 25.7022C90.6084 24.886 90.421 23.9948 90.2961 23.0287V22.454C90.421 21.4879 90.6084 20.5968 90.8583 19.7806C91.1082 18.9644 91.4371 18.2523 91.8452 17.6443C92.2533 17.0363 92.7572 16.5658 93.3569 16.2326C93.9565 15.8995 94.6644 15.7329 95.4806 15.7329C96.3718 15.7329 97.1464 15.9036 97.8043 16.2451C98.4706 16.5782 99.0203 17.053 99.4534 17.6693C99.8948 18.2773 100.22 19.0019 100.428 19.843C100.644 20.6759 100.753 21.5962 100.753 22.604ZM97.1547 22.8663V22.604C97.1547 22.0543 97.113 21.5379 97.0298 21.0548C96.9548 20.5635 96.8215 20.1345 96.63 19.7681C96.4384 19.3933 96.1761 19.0976 95.8429 18.8811C95.5181 18.6645 95.0975 18.5563 94.5812 18.5563C94.0898 18.5563 93.6733 18.6396 93.3319 18.8061C92.9904 18.9727 92.7072 19.2059 92.4824 19.5057C92.2658 19.8056 92.1034 20.1637 91.9951 20.5801C91.8869 20.9882 91.8202 21.438 91.7953 21.9293V23.5659C91.8202 24.2239 91.9285 24.8069 92.1201 25.3149C92.32 25.8146 92.6198 26.2102 93.0196 26.5017C93.4277 26.7849 93.9565 26.9265 94.6061 26.9265C95.1142 26.9265 95.5348 26.8265 95.8679 26.6266C96.2011 26.4268 96.4592 26.1436 96.6425 25.7771C96.834 25.4107 96.9673 24.9818 97.0422 24.4904C97.1172 23.9907 97.1547 23.4493 97.1547 22.8663ZM110.297 25.7646C110.297 25.5065 110.222 25.2733 110.072 25.065C109.922 24.8568 109.643 24.6653 109.235 24.4904C108.835 24.3071 108.257 24.1406 107.499 23.9907C106.816 23.8407 106.179 23.6534 105.587 23.4285C105.004 23.1953 104.496 22.9163 104.063 22.5915C103.638 22.2666 103.305 21.8835 103.064 21.4421C102.822 20.9924 102.702 20.4802 102.702 19.9055C102.702 19.3392 102.822 18.8061 103.064 18.3064C103.314 17.8067 103.668 17.3653 104.126 16.9822C104.592 16.5907 105.158 16.2867 105.825 16.0702C106.499 15.8453 107.257 15.7329 108.098 15.7329C109.273 15.7329 110.28 15.9203 111.122 16.2951C111.971 16.6699 112.621 17.1862 113.071 17.8442C113.529 18.4938 113.758 19.2351 113.758 20.0679H110.16C110.16 19.7181 110.085 19.4058 109.935 19.1309C109.793 18.8478 109.568 18.6271 109.26 18.4688C108.96 18.3023 108.569 18.219 108.086 18.219C107.686 18.219 107.341 18.2898 107.049 18.4313C106.758 18.5646 106.533 18.7478 106.374 18.981C106.224 19.2059 106.15 19.4558 106.15 19.7306C106.15 19.9388 106.191 20.1262 106.274 20.2928C106.366 20.451 106.512 20.5968 106.712 20.73C106.912 20.8633 107.17 20.9882 107.486 21.1048C107.811 21.2131 108.211 21.313 108.686 21.4046C109.66 21.6045 110.53 21.8669 111.297 22.1917C112.063 22.5082 112.671 22.9413 113.121 23.4909C113.57 24.0323 113.795 24.7444 113.795 25.6272C113.795 26.2269 113.662 26.7766 113.395 27.2763C113.129 27.776 112.746 28.2132 112.246 28.588C111.746 28.9545 111.147 29.2418 110.447 29.45C109.756 29.6499 108.977 29.7499 108.111 29.7499C106.853 29.7499 105.787 29.525 104.913 29.0752C104.047 28.6255 103.389 28.055 102.939 27.3637C102.497 26.6641 102.277 25.9479 102.277 25.215H105.687C105.704 25.7063 105.829 26.1019 106.062 26.4018C106.304 26.7016 106.608 26.9181 106.974 27.0514C107.349 27.1847 107.753 27.2513 108.186 27.2513C108.652 27.2513 109.04 27.1888 109.348 27.0639C109.656 26.9306 109.889 26.7557 110.047 26.5392C110.214 26.3143 110.297 26.0561 110.297 25.7646ZM124.439 11.3104H127.612L132.285 24.6653L136.957 11.3104H140.13L133.559 29.5H131.01L124.439 11.3104ZM122.728 11.3104H125.888L126.463 24.328V29.5H122.728V11.3104ZM138.681 11.3104H141.854V29.5H138.106V24.328L138.681 11.3104ZM144.34 22.8788V22.6164C144.34 21.6253 144.482 20.7134 144.765 19.8805C145.048 19.0393 145.46 18.3106 146.002 17.6943C146.543 17.078 147.209 16.5991 148.001 16.2576C148.792 15.9078 149.7 15.7329 150.724 15.7329C151.748 15.7329 152.66 15.9078 153.46 16.2576C154.259 16.5991 154.93 17.078 155.471 17.6943C156.021 18.3106 156.437 19.0393 156.721 19.8805C157.004 20.7134 157.145 21.6253 157.145 22.6164V22.8788C157.145 23.8616 157.004 24.7735 156.721 25.6147C156.437 26.4476 156.021 27.1763 155.471 27.801C154.93 28.4173 154.264 28.8962 153.472 29.2377C152.681 29.5791 151.773 29.7499 150.749 29.7499C149.725 29.7499 148.813 29.5791 148.013 29.2377C147.222 28.8962 146.551 28.4173 146.002 27.801C145.46 27.1763 145.048 26.4476 144.765 25.6147C144.482 24.7735 144.34 23.8616 144.34 22.8788ZM147.938 22.6164V22.8788C147.938 23.4451 147.988 23.974 148.088 24.4654C148.188 24.9568 148.346 25.3899 148.563 25.7646C148.788 26.1311 149.079 26.4184 149.437 26.6266C149.795 26.8349 150.233 26.939 150.749 26.939C151.249 26.939 151.678 26.8349 152.036 26.6266C152.394 26.4184 152.681 26.1311 152.898 25.7646C153.114 25.3899 153.272 24.9568 153.372 24.4654C153.481 23.974 153.535 23.4451 153.535 22.8788V22.6164C153.535 22.0668 153.481 21.5504 153.372 21.0673C153.272 20.576 153.11 20.1429 152.885 19.7681C152.669 19.385 152.381 19.0851 152.023 18.8686C151.665 18.6521 151.232 18.5438 150.724 18.5438C150.216 18.5438 149.783 18.6521 149.425 18.8686C149.075 19.0851 148.788 19.385 148.563 19.7681C148.346 20.1429 148.188 20.576 148.088 21.0673C147.988 21.5504 147.938 22.0668 147.938 22.6164ZM162.879 18.8686V29.5H159.282V15.9828H162.655L162.879 18.8686ZM162.355 22.2666H161.38C161.38 21.2672 161.509 20.3677 161.768 19.5682C162.026 18.7603 162.388 18.0732 162.854 17.5069C163.321 16.9322 163.875 16.495 164.516 16.1951C165.166 15.887 165.89 15.7329 166.69 15.7329C167.323 15.7329 167.902 15.8245 168.426 16.0077C168.951 16.191 169.401 16.4825 169.776 16.8822C170.159 17.282 170.45 17.8109 170.65 18.4688C170.858 19.1268 170.962 19.9305 170.962 20.8799V29.5H167.339V20.8675C167.339 20.2678 167.256 19.8014 167.09 19.4683C166.923 19.1351 166.677 18.9019 166.352 18.7687C166.036 18.6271 165.645 18.5563 165.178 18.5563C164.695 18.5563 164.275 18.6521 163.916 18.8436C163.567 19.0352 163.275 19.3017 163.042 19.6432C162.817 19.9763 162.646 20.3677 162.53 20.8175C162.413 21.2672 162.355 21.7503 162.355 22.2666ZM179.92 29.7499C178.87 29.7499 177.929 29.5833 177.096 29.2501C176.263 28.9087 175.556 28.4381 174.973 27.8385C174.398 27.2388 173.956 26.5434 173.648 25.7521C173.34 24.9526 173.186 24.1031 173.186 23.2036V22.7039C173.186 21.6795 173.332 20.7425 173.623 19.893C173.915 19.0435 174.331 18.3064 174.873 17.6818C175.422 17.0571 176.089 16.5782 176.871 16.2451C177.654 15.9036 178.537 15.7329 179.52 15.7329C180.478 15.7329 181.327 15.8911 182.068 16.2076C182.81 16.5241 183.43 16.9739 183.93 17.5569C184.438 18.1398 184.821 18.8394 185.079 19.6556C185.337 20.4635 185.467 21.363 185.467 22.3541V23.8532H174.723V21.4546H181.931V21.1798C181.931 20.6801 181.839 20.2345 181.656 19.843C181.481 19.4433 181.215 19.1268 180.857 18.8936C180.499 18.6604 180.04 18.5438 179.482 18.5438C179.008 18.5438 178.6 18.6479 178.258 18.8561C177.917 19.0643 177.638 19.3558 177.421 19.7306C177.213 20.1054 177.055 20.5468 176.946 21.0548C176.846 21.5546 176.797 22.1042 176.797 22.7039V23.2036C176.797 23.745 176.871 24.2447 177.021 24.7028C177.18 25.1608 177.4 25.5564 177.683 25.8896C177.975 26.2227 178.325 26.4809 178.733 26.6641C179.149 26.8474 179.62 26.939 180.145 26.939C180.794 26.939 181.398 26.814 181.956 26.5642C182.522 26.306 183.01 25.9187 183.418 25.4024L185.167 27.3013C184.884 27.7094 184.496 28.1008 184.005 28.4756C183.522 28.8504 182.939 29.1585 182.256 29.4001C181.573 29.6333 180.794 29.7499 179.92 29.7499ZM191.351 27.9759L194.936 15.9828H198.796L193.362 31.5363C193.245 31.8778 193.087 32.2443 192.887 32.6357C192.696 33.0271 192.433 33.3978 192.1 33.7476C191.775 34.1057 191.363 34.3972 190.863 34.6221C190.372 34.8469 189.768 34.9594 189.052 34.9594C188.71 34.9594 188.431 34.9385 188.215 34.8969C187.998 34.8553 187.74 34.797 187.44 34.722V32.086C187.532 32.086 187.628 32.086 187.728 32.086C187.828 32.0943 187.923 32.0985 188.015 32.0985C188.49 32.0985 188.877 32.0444 189.177 31.9361C189.477 31.8278 189.718 31.6613 189.901 31.4364C190.085 31.2198 190.23 30.9367 190.339 30.5869L191.351 27.9759ZM189.852 15.9828L192.787 25.7771L193.3 29.5874L190.851 29.8498L185.991 15.9828H189.852Z" fill="#E1E1E6"/>
</svg>
